<svg width="96" height="96" xmlns="http://www.w3.org/2000/svg" xmlns:xlink="http://www.w3.org/1999/xlink" xml:space="preserve" overflow="hidden"><defs><clipPath id="clip0"><rect x="553" y="264" width="96" height="96"/></clipPath></defs><g clip-path="url(#clip0)" transform="translate(-553 -264)"><path d="M609.1 301.6 611 295.2C611.2 294.5 611 293.7 610.4 293.1L606.8 290C574 303 559.3 326 559.3 326 557.9 328 558.9 330.6 561.3 330L566.1 327.8C568.5 327.2 569.3 328.4 568.1 330.5L562.3 338C561 340.1 562.4 342.5 564.8 342L568.8 341.3C569.9 341 571 341.3 571.8 342.1 572.6 342.8 573 343.9 572.8 345L571.2 351.8C571 354.2 573.9 354.9 575.2 352.8 575.2 352.8 591.4 320 609.3 306.2 608.8 304.7 608.7 303.1 609.1 301.6Z" fill="#FFFFFF"/><path d="M642.5 285.9C643.3 285.2 643.6 284.1 643.2 283.2 642.8 282.2 641.9 281.6 640.9 281.6L632.7 281.6C631.6 281.6 630.7 280.9 630.4 279.9L627.7 271.8C627.4 270.8 626.4 270.1 625.4 270.1 624.3 270.1 623.4 270.8 623.1 271.8L620.4 279.9C620.1 280.9 619.1 281.6 618.1 281.6L609.9 281.6C608.9 281.6 608 282.3 607.6 283.2 607.2 284.2 607.5 285.3 608.3 285.9L611.2 288.5 614.9 291.7C615.3 292 615.5 292.4 615.7 292.9 615.8 293.4 615.8 293.8 615.7 294.3L613 302.8C612.7 303.8 613 304.9 613.9 305.5 614.7 306.1 615.9 306.1 616.8 305.6L624 300.5C624.8 299.9 626 299.9 626.8 300.5L634 305.6C634.9 306.2 636 306.2 636.9 305.5 637.7 304.9 638.1 303.8 637.8 302.8L635.3 294.3C635 293.4 635.3 292.3 636 291.7L642.5 285.9Z" fill="#FFFFFF"/></g></svg>